<svg xmlns="http://www.w3.org/2000/svg" xmlns:xlink="http://www.w3.org/1999/xlink" width="622" height="217" viewBox="0 0 622 217"><defs><radialGradient id="glass" cx="35%" cy="20%" r="90%"><stop offset="0.000" stop-color="#293b2c"/><stop offset="1.000" stop-color="#15251d"/></radialGradient></defs><rect x="0" y="0" width="622" height="217" rx="6" fill="url(#glass)" /><path d="M31 35 L31 182" fill="none" stroke="#466147" stroke-width="0.65" opacity="0.38"/><path d="M87 35 L87 182" fill="none" stroke="#466147" stroke-width="0.65" opacity="0.38"/><path d="M143 35 L143 182" fill="none" stroke="#466147" stroke-width="0.65" opacity="0.38"/><path d="M199 35 L199 182" fill="none" stroke="#466147" stroke-width="0.65" opacity="0.38"/><path d="M255 35 L255 182" fill="none" stroke="#466147" stroke-width="0.65" opacity="0.38"/><path d="M311 35 L311 182" fill="none" stroke="#466147" stroke-width="0.65" opacity="0.38"/><path d="M367 35 L367 182" fill="none" stroke="#466147" stroke-width="0.65" opacity="0.38"/><path d="M423 35 L423 182" fill="none" stroke="#466147" stroke-width="0.65" opacity="0.38"/><path d="M479 35 L479 182" fill="none" stroke="#466147" stroke-width="0.65" opacity="0.38"/><path d="M535 35 L535 182" fill="none" stroke="#466147" stroke-width="0.65" opacity="0.38"/><path d="M591 35 L591 182" fill="none" stroke="#466147" stroke-width="0.65" opacity="0.38"/><path d="M17 49 L605 49" fill="none" stroke="#466147" stroke-width="0.65" opacity="0.38"/><path d="M17 82 L605 82" fill="none" stroke="#466147" stroke-width="0.65" opacity="0.38"/><path d="M17 115 L605 115" fill="none" stroke="#466147" stroke-width="0.65" opacity="0.38"/><path d="M17 148 L605 148" fill="none" stroke="#466147" stroke-width="0.65" opacity="0.38"/><path d="M17 181 L605 181" fill="none" stroke="#466147" stroke-width="0.65" opacity="0.38"/><path d="M17 115 L605 115" fill="none" stroke="#779070" stroke-width="0.7" opacity="0.45"/><path d="M311 36 L311 182" fill="none" stroke="#779070" stroke-width="0.7" opacity="0.45"/><path d="M17 112 L17 118" fill="none" stroke="#67825f" stroke-width="0.6" /><path d="M31 112 L31 118" fill="none" stroke="#67825f" stroke-width="0.6" /><path d="M45 112 L45 118" fill="none" stroke="#67825f" stroke-width="0.6" /><path d="M59 112 L59 118" fill="none" stroke="#67825f" stroke-width="0.6" /><path d="M73 112 L73 118" fill="none" stroke="#67825f" stroke-width="0.6" /><path d="M87 112 L87 118" fill="none" stroke="#67825f" stroke-width="0.6" /><path d="M101 112 L101 118" fill="none" stroke="#67825f" stroke-width="0.6" /><path d="M115 112 L115 118" fill="none" stroke="#67825f" stroke-width="0.6" /><path d="M129 112 L129 118" fill="none" stroke="#67825f" stroke-width="0.6" /><path d="M143 112 L143 118" fill="none" stroke="#67825f" stroke-width="0.6" /><path d="M157 112 L157 118" fill="none" stroke="#67825f" stroke-width="0.6" /><path d="M171 112 L171 118" fill="none" stroke="#67825f" stroke-width="0.6" /><path d="M185 112 L185 118" fill="none" stroke="#67825f" stroke-width="0.6" /><path d="M199 112 L199 118" fill="none" stroke="#67825f" stroke-width="0.6" /><path d="M213 112 L213 118" fill="none" stroke="#67825f" stroke-width="0.6" /><path d="M227 112 L227 118" fill="none" stroke="#67825f" stroke-width="0.6" /><path d="M241 112 L241 118" fill="none" stroke="#67825f" stroke-width="0.6" /><path d="M255 112 L255 118" fill="none" stroke="#67825f" stroke-width="0.6" /><path d="M269 112 L269 118" fill="none" stroke="#67825f" stroke-width="0.6" /><path d="M283 112 L283 118" fill="none" stroke="#67825f" stroke-width="0.6" /><path d="M297 112 L297 118" fill="none" stroke="#67825f" stroke-width="0.6" /><path d="M311 112 L311 118" fill="none" stroke="#67825f" stroke-width="0.6" /><path d="M325 112 L325 118" fill="none" stroke="#67825f" stroke-width="0.6" /><path d="M339 112 L339 118" fill="none" stroke="#67825f" stroke-width="0.6" /><path d="M353 112 L353 118" fill="none" stroke="#67825f" stroke-width="0.6" /><path d="M367 112 L367 118" fill="none" stroke="#67825f" stroke-width="0.6" /><path d="M381 112 L381 118" fill="none" stroke="#67825f" stroke-width="0.6" /><path d="M395 112 L395 118" fill="none" stroke="#67825f" stroke-width="0.6" /><path d="M409 112 L409 118" fill="none" stroke="#67825f" stroke-width="0.6" /><path d="M423 112 L423 118" fill="none" stroke="#67825f" stroke-width="0.6" /><path d="M437 112 L437 118" fill="none" stroke="#67825f" stroke-width="0.6" /><path d="M451 112 L451 118" fill="none" stroke="#67825f" stroke-width="0.6" /><path d="M465 112 L465 118" fill="none" stroke="#67825f" stroke-width="0.6" /><path d="M479 112 L479 118" fill="none" stroke="#67825f" stroke-width="0.6" /><path d="M493 112 L493 118" fill="none" stroke="#67825f" stroke-width="0.6" /><path d="M507 112 L507 118" fill="none" stroke="#67825f" stroke-width="0.6" /><path d="M521 112 L521 118" fill="none" stroke="#67825f" stroke-width="0.6" /><path d="M535 112 L535 118" fill="none" stroke="#67825f" stroke-width="0.6" /><path d="M549 112 L549 118" fill="none" stroke="#67825f" stroke-width="0.6" /><path d="M563 112 L563 118" fill="none" stroke="#67825f" stroke-width="0.6" /><path d="M577 112 L577 118" fill="none" stroke="#67825f" stroke-width="0.6" /><path d="M591 112 L591 118" fill="none" stroke="#67825f" stroke-width="0.6" /><path d="M605 112 L605 118" fill="none" stroke="#67825f" stroke-width="0.6" /></svg>